<mxfile host="Electron" agent="Mozilla/5.0 (Windows NT 10.0; Win64; x64) AppleWebKit/537.36 (KHTML, like Gecko) draw.io/26.0.16 Chrome/132.0.6834.196 Electron/34.2.0 Safari/537.36" version="26.0.16">
  <diagram name="Page-1" id="EFyuxkqvzAY0xfPjEcam">
    <mxGraphModel dx="3387" dy="2093" grid="1" gridSize="10" guides="1" tooltips="1" connect="1" arrows="1" fold="1" page="1" pageScale="1" pageWidth="850" pageHeight="1100" math="0" shadow="0">
      <root>
        <mxCell id="0" />
        <mxCell id="1" parent="0" />
        <mxCell id="fg8lqmvWeH6vy0cf0ORE-1" value="&lt;div&gt;Redboard MCU&lt;/div&gt;TM4C123GH6PM" style="rounded=0;whiteSpace=wrap;html=1;fontStyle=1" vertex="1" parent="1">
          <mxGeometry x="-560" y="-80" width="200" height="760" as="geometry" />
        </mxCell>
        <mxCell id="fg8lqmvWeH6vy0cf0ORE-2" value="" style="group;fontStyle=1" vertex="1" connectable="0" parent="1">
          <mxGeometry x="-760" y="360" width="120" height="120" as="geometry" />
        </mxCell>
        <mxCell id="fg8lqmvWeH6vy0cf0ORE-3" value="LiDAR" style="rounded=0;whiteSpace=wrap;html=1;fontStyle=1" vertex="1" parent="fg8lqmvWeH6vy0cf0ORE-2">
          <mxGeometry width="120" height="120" as="geometry" />
        </mxCell>
        <mxCell id="fg8lqmvWeH6vy0cf0ORE-4" value="&lt;font style=&quot;font-size: 10px;&quot;&gt;+5V&lt;/font&gt;" style="text;html=1;align=center;verticalAlign=middle;resizable=0;points=[];autosize=1;strokeColor=none;fillColor=none;" vertex="1" parent="fg8lqmvWeH6vy0cf0ORE-2">
          <mxGeometry y="90" width="40" height="30" as="geometry" />
        </mxCell>
        <mxCell id="fg8lqmvWeH6vy0cf0ORE-5" value="&lt;font style=&quot;font-size: 10px;&quot;&gt;GND&lt;/font&gt;" style="text;html=1;align=center;verticalAlign=middle;resizable=0;points=[];autosize=1;strokeColor=none;fillColor=none;" vertex="1" parent="fg8lqmvWeH6vy0cf0ORE-2">
          <mxGeometry x="70" y="90" width="50" height="30" as="geometry" />
        </mxCell>
        <mxCell id="fg8lqmvWeH6vy0cf0ORE-99" value="&lt;font style=&quot;font-size: 10px;&quot;&gt;DATA&lt;/font&gt;" style="text;html=1;align=center;verticalAlign=middle;resizable=0;points=[];autosize=1;strokeColor=none;fillColor=none;" vertex="1" parent="fg8lqmvWeH6vy0cf0ORE-2">
          <mxGeometry x="30" y="90" width="50" height="30" as="geometry" />
        </mxCell>
        <mxCell id="fg8lqmvWeH6vy0cf0ORE-17" value="" style="group;fontStyle=1" vertex="1" connectable="0" parent="1">
          <mxGeometry x="-760" y="560" width="120" height="120" as="geometry" />
        </mxCell>
        <mxCell id="fg8lqmvWeH6vy0cf0ORE-18" value="Raspberry&lt;br&gt;Pi 5" style="rounded=0;whiteSpace=wrap;html=1;fontStyle=1" vertex="1" parent="fg8lqmvWeH6vy0cf0ORE-17">
          <mxGeometry width="120" height="120" as="geometry" />
        </mxCell>
        <mxCell id="fg8lqmvWeH6vy0cf0ORE-19" value="&lt;font style=&quot;font-size: 10px;&quot;&gt;+5V&lt;/font&gt;" style="text;html=1;align=center;verticalAlign=middle;resizable=0;points=[];autosize=1;strokeColor=none;fillColor=none;" vertex="1" parent="fg8lqmvWeH6vy0cf0ORE-17">
          <mxGeometry width="40" height="30" as="geometry" />
        </mxCell>
        <mxCell id="fg8lqmvWeH6vy0cf0ORE-22" value="&lt;font style=&quot;font-size: 10px;&quot;&gt;GND&lt;/font&gt;" style="text;html=1;align=center;verticalAlign=middle;resizable=0;points=[];autosize=1;strokeColor=none;fillColor=none;" vertex="1" parent="fg8lqmvWeH6vy0cf0ORE-17">
          <mxGeometry y="90" width="50" height="30" as="geometry" />
        </mxCell>
        <mxCell id="fg8lqmvWeH6vy0cf0ORE-89" value="&lt;font style=&quot;font-size: 10px;&quot;&gt;GND&lt;/font&gt;" style="text;html=1;align=center;verticalAlign=middle;resizable=0;points=[];autosize=1;strokeColor=none;fillColor=none;" vertex="1" parent="fg8lqmvWeH6vy0cf0ORE-17">
          <mxGeometry x="70" width="50" height="30" as="geometry" />
        </mxCell>
        <mxCell id="fg8lqmvWeH6vy0cf0ORE-95" value="&lt;font style=&quot;font-size: 10px;&quot;&gt;+5V&lt;/font&gt;" style="text;html=1;align=center;verticalAlign=middle;resizable=0;points=[];autosize=1;strokeColor=none;fillColor=none;" vertex="1" parent="fg8lqmvWeH6vy0cf0ORE-17">
          <mxGeometry x="80" y="90" width="40" height="30" as="geometry" />
        </mxCell>
        <mxCell id="fg8lqmvWeH6vy0cf0ORE-98" value="&lt;font style=&quot;font-size: 10px;&quot;&gt;DATA&lt;/font&gt;" style="text;html=1;align=center;verticalAlign=middle;resizable=0;points=[];autosize=1;strokeColor=none;fillColor=none;" vertex="1" parent="fg8lqmvWeH6vy0cf0ORE-17">
          <mxGeometry x="30" width="50" height="30" as="geometry" />
        </mxCell>
        <mxCell id="fg8lqmvWeH6vy0cf0ORE-114" value="&lt;font style=&quot;font-size: 10px;&quot;&gt;USB&lt;/font&gt;&lt;div&gt;&lt;font style=&quot;font-size: 10px;&quot;&gt;(TX)&lt;/font&gt;&lt;/div&gt;" style="text;html=1;align=center;verticalAlign=middle;resizable=0;points=[];autosize=1;strokeColor=none;fillColor=none;" vertex="1" parent="fg8lqmvWeH6vy0cf0ORE-17">
          <mxGeometry x="80" y="50" width="40" height="40" as="geometry" />
        </mxCell>
        <mxCell id="fg8lqmvWeH6vy0cf0ORE-27" value="" style="group" vertex="1" connectable="0" parent="1">
          <mxGeometry x="-760" y="760" width="650.01" height="80" as="geometry" />
        </mxCell>
        <mxCell id="fg8lqmvWeH6vy0cf0ORE-28" value="&lt;div&gt;PCBoard&lt;/div&gt;&lt;div&gt;Power Distribution&lt;/div&gt;" style="rounded=0;whiteSpace=wrap;html=1;fontStyle=1" vertex="1" parent="fg8lqmvWeH6vy0cf0ORE-27">
          <mxGeometry width="640" height="80" as="geometry" />
        </mxCell>
        <mxCell id="fg8lqmvWeH6vy0cf0ORE-29" value="&lt;font style=&quot;font-size: 10px;&quot;&gt;+5V&lt;/font&gt;" style="text;html=1;align=center;verticalAlign=middle;resizable=0;points=[];autosize=1;strokeColor=none;fillColor=none;" vertex="1" parent="fg8lqmvWeH6vy0cf0ORE-27">
          <mxGeometry x="80" width="40" height="30" as="geometry" />
        </mxCell>
        <mxCell id="fg8lqmvWeH6vy0cf0ORE-30" value="&lt;font style=&quot;font-size: 10px;&quot;&gt;GND&lt;/font&gt;" style="text;html=1;align=center;verticalAlign=middle;resizable=0;points=[];autosize=1;strokeColor=none;fillColor=none;" vertex="1" parent="fg8lqmvWeH6vy0cf0ORE-27">
          <mxGeometry width="50" height="30" as="geometry" />
        </mxCell>
        <mxCell id="fg8lqmvWeH6vy0cf0ORE-31" value="&lt;font style=&quot;font-size: 10px;&quot;&gt;+5V&lt;/font&gt;" style="text;html=1;align=center;verticalAlign=middle;resizable=0;points=[];autosize=1;strokeColor=none;fillColor=none;" vertex="1" parent="fg8lqmvWeH6vy0cf0ORE-27">
          <mxGeometry x="200" width="40" height="30" as="geometry" />
        </mxCell>
        <mxCell id="fg8lqmvWeH6vy0cf0ORE-32" value="&lt;font style=&quot;font-size: 10px;&quot;&gt;GND&lt;/font&gt;" style="text;html=1;align=center;verticalAlign=middle;resizable=0;points=[];autosize=1;strokeColor=none;fillColor=none;" vertex="1" parent="fg8lqmvWeH6vy0cf0ORE-27">
          <mxGeometry x="350" width="50" height="30" as="geometry" />
        </mxCell>
        <mxCell id="fg8lqmvWeH6vy0cf0ORE-33" value="&lt;font style=&quot;font-size: 10px;&quot;&gt;GND&lt;/font&gt;" style="text;html=1;align=center;verticalAlign=middle;resizable=0;points=[];autosize=1;strokeColor=none;fillColor=none;" vertex="1" parent="fg8lqmvWeH6vy0cf0ORE-27">
          <mxGeometry x="480.02" width="50" height="30" as="geometry" />
        </mxCell>
        <mxCell id="fg8lqmvWeH6vy0cf0ORE-34" value="&lt;font style=&quot;font-size: 10px;&quot;&gt;+5V&lt;/font&gt;" style="text;html=1;align=center;verticalAlign=middle;resizable=0;points=[];autosize=1;strokeColor=none;fillColor=none;" vertex="1" parent="fg8lqmvWeH6vy0cf0ORE-27">
          <mxGeometry x="440.02" width="40" height="30" as="geometry" />
        </mxCell>
        <mxCell id="fg8lqmvWeH6vy0cf0ORE-35" value="&lt;font style=&quot;font-size: 10px;&quot;&gt;+5V&lt;/font&gt;" style="text;html=1;align=center;verticalAlign=middle;resizable=0;points=[];autosize=1;strokeColor=none;fillColor=none;" vertex="1" parent="fg8lqmvWeH6vy0cf0ORE-27">
          <mxGeometry x="560.01" width="40" height="30" as="geometry" />
        </mxCell>
        <mxCell id="fg8lqmvWeH6vy0cf0ORE-36" value="&lt;font style=&quot;font-size: 10px;&quot;&gt;GND&lt;/font&gt;" style="text;html=1;align=center;verticalAlign=middle;resizable=0;points=[];autosize=1;strokeColor=none;fillColor=none;" vertex="1" parent="fg8lqmvWeH6vy0cf0ORE-27">
          <mxGeometry x="600.01" width="50" height="30" as="geometry" />
        </mxCell>
        <mxCell id="fg8lqmvWeH6vy0cf0ORE-73" value="" style="group" connectable="0" vertex="1" parent="1">
          <mxGeometry x="-310" y="-80" width="200" height="200" as="geometry" />
        </mxCell>
        <mxCell id="fg8lqmvWeH6vy0cf0ORE-74" value="&lt;div&gt;&lt;span style=&quot;background-color: initial;&quot;&gt;Front&lt;/span&gt;&lt;/div&gt;&lt;div&gt;&lt;span style=&quot;background-color: initial;&quot;&gt;Dual Motor Driver&lt;/span&gt;&lt;/div&gt;&lt;div&gt;&lt;span style=&quot;background-color: initial;&quot;&gt;(&lt;/span&gt;&lt;span style=&quot;background-color: initial;&quot;&gt;Sabertooth&amp;nbsp;&lt;/span&gt;&lt;span style=&quot;background-color: initial;&quot;&gt;2X25 V2)&lt;/span&gt;&lt;/div&gt;" style="rounded=0;whiteSpace=wrap;html=1;fontStyle=1" vertex="1" parent="fg8lqmvWeH6vy0cf0ORE-73">
          <mxGeometry width="200" height="200" as="geometry" />
        </mxCell>
        <mxCell id="fg8lqmvWeH6vy0cf0ORE-75" value="&lt;font style=&quot;font-size: 10px;&quot;&gt;S1&lt;/font&gt;" style="text;html=1;align=center;verticalAlign=middle;resizable=0;points=[];autosize=1;strokeColor=none;fillColor=none;" vertex="1" parent="fg8lqmvWeH6vy0cf0ORE-73">
          <mxGeometry y="120" width="40" height="30" as="geometry" />
        </mxCell>
        <mxCell id="fg8lqmvWeH6vy0cf0ORE-76" value="&lt;font style=&quot;font-size: 10px;&quot;&gt;5V&lt;/font&gt;" style="text;html=1;align=center;verticalAlign=middle;resizable=0;points=[];autosize=1;strokeColor=none;fillColor=none;" vertex="1" parent="fg8lqmvWeH6vy0cf0ORE-73">
          <mxGeometry y="60" width="40" height="30" as="geometry" />
        </mxCell>
        <mxCell id="fg8lqmvWeH6vy0cf0ORE-77" value="&lt;font style=&quot;font-size: 10px;&quot;&gt;M1A&lt;/font&gt;" style="text;html=1;align=center;verticalAlign=middle;resizable=0;points=[];autosize=1;strokeColor=none;fillColor=none;" vertex="1" parent="fg8lqmvWeH6vy0cf0ORE-73">
          <mxGeometry x="80" y="170" width="40" height="30" as="geometry" />
        </mxCell>
        <mxCell id="fg8lqmvWeH6vy0cf0ORE-78" value="&lt;font style=&quot;font-size: 10px;&quot;&gt;M1B&lt;/font&gt;" style="text;html=1;align=center;verticalAlign=middle;resizable=0;points=[];autosize=1;strokeColor=none;fillColor=none;" vertex="1" parent="fg8lqmvWeH6vy0cf0ORE-73">
          <mxGeometry x="50" y="170" width="40" height="30" as="geometry" />
        </mxCell>
        <mxCell id="fg8lqmvWeH6vy0cf0ORE-79" value="&lt;font style=&quot;font-size: 10px;&quot;&gt;M1A&lt;/font&gt;" style="text;html=1;align=center;verticalAlign=middle;resizable=0;points=[];autosize=1;strokeColor=none;fillColor=none;" vertex="1" parent="fg8lqmvWeH6vy0cf0ORE-73">
          <mxGeometry x="160" y="170" width="40" height="30" as="geometry" />
        </mxCell>
        <mxCell id="fg8lqmvWeH6vy0cf0ORE-80" value="&lt;font style=&quot;font-size: 10px;&quot;&gt;M1B&lt;/font&gt;" style="text;html=1;align=center;verticalAlign=middle;resizable=0;points=[];autosize=1;strokeColor=none;fillColor=none;" vertex="1" parent="fg8lqmvWeH6vy0cf0ORE-73">
          <mxGeometry x="130" y="170" width="40" height="30" as="geometry" />
        </mxCell>
        <mxCell id="fg8lqmvWeH6vy0cf0ORE-81" value="&lt;font style=&quot;font-size: 10px;&quot;&gt;S2&lt;/font&gt;" style="text;html=1;align=center;verticalAlign=middle;resizable=0;points=[];autosize=1;strokeColor=none;fillColor=none;" vertex="1" parent="fg8lqmvWeH6vy0cf0ORE-73">
          <mxGeometry y="170" width="40" height="30" as="geometry" />
        </mxCell>
        <mxCell id="fg8lqmvWeH6vy0cf0ORE-82" value="&lt;font style=&quot;font-size: 10px;&quot;&gt;0V&lt;/font&gt;" style="text;html=1;align=center;verticalAlign=middle;resizable=0;points=[];autosize=1;strokeColor=none;fillColor=none;" vertex="1" parent="fg8lqmvWeH6vy0cf0ORE-73">
          <mxGeometry width="40" height="30" as="geometry" />
        </mxCell>
        <mxCell id="fg8lqmvWeH6vy0cf0ORE-83" value="&lt;font style=&quot;font-size: 10px;&quot;&gt;B+&lt;/font&gt;" style="text;html=1;align=center;verticalAlign=middle;resizable=0;points=[];autosize=1;strokeColor=none;fillColor=none;spacing=0;" vertex="1" parent="fg8lqmvWeH6vy0cf0ORE-73">
          <mxGeometry x="170" y="40" width="30" height="20" as="geometry" />
        </mxCell>
        <mxCell id="fg8lqmvWeH6vy0cf0ORE-84" value="&lt;font style=&quot;font-size: 10px;&quot;&gt;B-&lt;/font&gt;" style="text;html=1;align=center;verticalAlign=middle;resizable=0;points=[];autosize=1;strokeColor=none;fillColor=none;spacing=0;" vertex="1" parent="fg8lqmvWeH6vy0cf0ORE-73">
          <mxGeometry x="170" y="140" width="30" height="20" as="geometry" />
        </mxCell>
        <mxCell id="fg8lqmvWeH6vy0cf0ORE-87" style="edgeStyle=orthogonalEdgeStyle;rounded=0;orthogonalLoop=1;jettySize=auto;html=1;exitX=1;exitY=0.5;exitDx=0;exitDy=0;exitPerimeter=0;endArrow=none;startFill=0;fillColor=#f8cecc;strokeColor=#b85450;" edge="1" parent="1" source="fg8lqmvWeH6vy0cf0ORE-86">
          <mxGeometry relative="1" as="geometry">
            <mxPoint x="-760" y="575" as="targetPoint" />
            <Array as="points">
              <mxPoint x="-820" y="575" />
              <mxPoint x="-780" y="575" />
            </Array>
          </mxGeometry>
        </mxCell>
        <mxCell id="fg8lqmvWeH6vy0cf0ORE-86" value="" style="verticalLabelPosition=bottom;shadow=0;dashed=0;align=center;fillColor=strokeColor;html=1;verticalAlign=top;strokeWidth=1;shape=mxgraph.electrical.miscellaneous.monocell_battery;direction=north;" vertex="1" parent="1">
          <mxGeometry x="-840" y="590" width="40" height="60" as="geometry" />
        </mxCell>
        <mxCell id="fg8lqmvWeH6vy0cf0ORE-88" style="edgeStyle=orthogonalEdgeStyle;rounded=0;orthogonalLoop=1;jettySize=auto;html=1;entryX=-0.001;entryY=0.539;entryDx=0;entryDy=0;entryPerimeter=0;exitX=0;exitY=0.5;exitDx=0;exitDy=0;exitPerimeter=0;endArrow=none;startFill=0;" edge="1" parent="1" source="fg8lqmvWeH6vy0cf0ORE-86" target="fg8lqmvWeH6vy0cf0ORE-22">
          <mxGeometry relative="1" as="geometry">
            <Array as="points">
              <mxPoint x="-820" y="666" />
              <mxPoint x="-780" y="666" />
            </Array>
          </mxGeometry>
        </mxCell>
        <mxCell id="fg8lqmvWeH6vy0cf0ORE-96" style="edgeStyle=orthogonalEdgeStyle;rounded=0;orthogonalLoop=1;jettySize=auto;html=1;entryX=0.5;entryY=1;entryDx=0;entryDy=0;entryPerimeter=0;endArrow=none;startFill=0;fillColor=#f8cecc;strokeColor=#b85450;" edge="1" parent="1" source="fg8lqmvWeH6vy0cf0ORE-29" target="fg8lqmvWeH6vy0cf0ORE-95">
          <mxGeometry relative="1" as="geometry" />
        </mxCell>
        <mxCell id="fg8lqmvWeH6vy0cf0ORE-97" style="edgeStyle=orthogonalEdgeStyle;rounded=0;orthogonalLoop=1;jettySize=auto;html=1;entryX=0.5;entryY=1;entryDx=0;entryDy=0;entryPerimeter=0;endArrow=none;startFill=0;" edge="1" parent="1" source="fg8lqmvWeH6vy0cf0ORE-30" target="fg8lqmvWeH6vy0cf0ORE-22">
          <mxGeometry relative="1" as="geometry" />
        </mxCell>
        <mxCell id="fg8lqmvWeH6vy0cf0ORE-100" style="edgeStyle=orthogonalEdgeStyle;rounded=0;orthogonalLoop=1;jettySize=auto;html=1;entryX=0.5;entryY=1;entryDx=0;entryDy=0;entryPerimeter=0;startArrow=classic;startFill=1;fillColor=#e1d5e7;strokeColor=#9673a6;" edge="1" parent="1" source="fg8lqmvWeH6vy0cf0ORE-98" target="fg8lqmvWeH6vy0cf0ORE-99">
          <mxGeometry relative="1" as="geometry" />
        </mxCell>
        <mxCell id="fg8lqmvWeH6vy0cf0ORE-101" style="edgeStyle=orthogonalEdgeStyle;rounded=0;orthogonalLoop=1;jettySize=auto;html=1;entryX=0.5;entryY=1;entryDx=0;entryDy=0;entryPerimeter=0;endArrow=none;startFill=0;" edge="1" parent="1" source="fg8lqmvWeH6vy0cf0ORE-89" target="fg8lqmvWeH6vy0cf0ORE-5">
          <mxGeometry relative="1" as="geometry" />
        </mxCell>
        <mxCell id="fg8lqmvWeH6vy0cf0ORE-102" style="edgeStyle=orthogonalEdgeStyle;rounded=0;orthogonalLoop=1;jettySize=auto;html=1;entryX=0.5;entryY=1;entryDx=0;entryDy=0;entryPerimeter=0;endArrow=none;startFill=0;fillColor=#f8cecc;strokeColor=#b85450;" edge="1" parent="1" source="fg8lqmvWeH6vy0cf0ORE-19" target="fg8lqmvWeH6vy0cf0ORE-4">
          <mxGeometry relative="1" as="geometry" />
        </mxCell>
        <mxCell id="fg8lqmvWeH6vy0cf0ORE-103" value="&lt;font style=&quot;font-size: 10px;&quot;&gt;GND&lt;/font&gt;" style="text;html=1;align=center;verticalAlign=middle;resizable=0;points=[];autosize=1;strokeColor=none;fillColor=none;" vertex="1" parent="1">
          <mxGeometry x="-410" y="650" width="50" height="30" as="geometry" />
        </mxCell>
        <mxCell id="fg8lqmvWeH6vy0cf0ORE-104" value="&lt;font style=&quot;font-size: 10px;&quot;&gt;+5V&lt;/font&gt;" style="text;html=1;align=center;verticalAlign=middle;resizable=0;points=[];autosize=1;strokeColor=none;fillColor=none;" vertex="1" parent="1">
          <mxGeometry x="-560" y="650" width="40" height="30" as="geometry" />
        </mxCell>
        <mxCell id="fg8lqmvWeH6vy0cf0ORE-108" style="edgeStyle=orthogonalEdgeStyle;rounded=0;orthogonalLoop=1;jettySize=auto;html=1;entryX=0.5;entryY=1;entryDx=0;entryDy=0;entryPerimeter=0;fillColor=#f8cecc;strokeColor=#b85450;endArrow=none;startFill=0;" edge="1" parent="1" source="fg8lqmvWeH6vy0cf0ORE-34" target="fg8lqmvWeH6vy0cf0ORE-8">
          <mxGeometry relative="1" as="geometry" />
        </mxCell>
        <mxCell id="fg8lqmvWeH6vy0cf0ORE-109" style="edgeStyle=orthogonalEdgeStyle;rounded=0;orthogonalLoop=1;jettySize=auto;html=1;entryX=0.5;entryY=1;entryDx=0;entryDy=0;entryPerimeter=0;endArrow=none;startFill=0;" edge="1" parent="1" source="fg8lqmvWeH6vy0cf0ORE-33" target="fg8lqmvWeH6vy0cf0ORE-9">
          <mxGeometry relative="1" as="geometry" />
        </mxCell>
        <mxCell id="fg8lqmvWeH6vy0cf0ORE-110" style="edgeStyle=orthogonalEdgeStyle;rounded=0;orthogonalLoop=1;jettySize=auto;html=1;entryX=0.5;entryY=1;entryDx=0;entryDy=0;entryPerimeter=0;fillColor=#f8cecc;strokeColor=#b85450;endArrow=none;startFill=0;" edge="1" parent="1" source="fg8lqmvWeH6vy0cf0ORE-35">
          <mxGeometry relative="1" as="geometry">
            <mxPoint x="-180" y="680" as="targetPoint" />
          </mxGeometry>
        </mxCell>
        <mxCell id="fg8lqmvWeH6vy0cf0ORE-111" style="edgeStyle=orthogonalEdgeStyle;rounded=0;orthogonalLoop=1;jettySize=auto;html=1;entryX=0.5;entryY=1;entryDx=0;entryDy=0;entryPerimeter=0;endArrow=none;startFill=0;" edge="1" parent="1" source="fg8lqmvWeH6vy0cf0ORE-36">
          <mxGeometry relative="1" as="geometry">
            <mxPoint x="-135" y="680" as="targetPoint" />
          </mxGeometry>
        </mxCell>
        <mxCell id="fg8lqmvWeH6vy0cf0ORE-112" style="edgeStyle=orthogonalEdgeStyle;rounded=0;orthogonalLoop=1;jettySize=auto;html=1;entryX=0.5;entryY=1;entryDx=0;entryDy=0;entryPerimeter=0;endArrow=none;startFill=0;fillColor=#f8cecc;strokeColor=#b85450;" edge="1" parent="1" source="fg8lqmvWeH6vy0cf0ORE-31" target="fg8lqmvWeH6vy0cf0ORE-104">
          <mxGeometry relative="1" as="geometry">
            <mxPoint x="-540" y="690" as="targetPoint" />
          </mxGeometry>
        </mxCell>
        <mxCell id="fg8lqmvWeH6vy0cf0ORE-113" style="edgeStyle=orthogonalEdgeStyle;rounded=0;orthogonalLoop=1;jettySize=auto;html=1;entryX=0.5;entryY=1;entryDx=0;entryDy=0;entryPerimeter=0;endArrow=none;startFill=0;" edge="1" parent="1" source="fg8lqmvWeH6vy0cf0ORE-32" target="fg8lqmvWeH6vy0cf0ORE-103">
          <mxGeometry relative="1" as="geometry" />
        </mxCell>
        <mxCell id="fg8lqmvWeH6vy0cf0ORE-116" value="&lt;span style=&quot;font-size: 10px;&quot;&gt;PC6 (U3RX)&lt;/span&gt;" style="text;html=1;align=center;verticalAlign=middle;resizable=0;points=[];autosize=1;strokeColor=none;fillColor=none;" vertex="1" parent="1">
          <mxGeometry x="-560" y="615" width="80" height="30" as="geometry" />
        </mxCell>
        <mxCell id="fg8lqmvWeH6vy0cf0ORE-115" style="edgeStyle=orthogonalEdgeStyle;rounded=0;orthogonalLoop=1;jettySize=auto;html=1;entryX=0;entryY=0.5;entryDx=0;entryDy=0;entryPerimeter=0;fillColor=#dae8fc;strokeColor=#6c8ebf;" edge="1" parent="1" source="fg8lqmvWeH6vy0cf0ORE-114" target="fg8lqmvWeH6vy0cf0ORE-116">
          <mxGeometry relative="1" as="geometry">
            <mxPoint x="-600" y="520" as="targetPoint" />
          </mxGeometry>
        </mxCell>
        <mxCell id="fg8lqmvWeH6vy0cf0ORE-117" value="&lt;font style=&quot;font-size: 10px;&quot;&gt;5V&lt;/font&gt;" style="text;html=1;align=center;verticalAlign=middle;resizable=0;points=[];autosize=1;strokeColor=none;fillColor=none;fontStyle=1" vertex="1" parent="1">
          <mxGeometry x="-880" y="605" width="40" height="30" as="geometry" />
        </mxCell>
        <mxCell id="fg8lqmvWeH6vy0cf0ORE-118" value="&lt;font&gt;22V&lt;/font&gt;" style="text;html=1;align=center;verticalAlign=middle;resizable=0;points=[];autosize=1;strokeColor=none;fillColor=none;fontStyle=1;fontSize=18;" vertex="1" parent="1">
          <mxGeometry x="10" width="60" height="40" as="geometry" />
        </mxCell>
        <mxCell id="fg8lqmvWeH6vy0cf0ORE-119" value="" style="verticalLabelPosition=bottom;shadow=0;dashed=0;align=center;fillColor=strokeColor;html=1;verticalAlign=top;strokeWidth=3;shape=mxgraph.electrical.miscellaneous.monocell_battery;direction=north;" vertex="1" parent="1">
          <mxGeometry x="-40" y="-27.5" width="60" height="95" as="geometry" />
        </mxCell>
        <mxCell id="fg8lqmvWeH6vy0cf0ORE-122" style="edgeStyle=orthogonalEdgeStyle;rounded=0;orthogonalLoop=1;jettySize=auto;html=1;entryX=1.012;entryY=0.583;entryDx=0;entryDy=0;entryPerimeter=0;strokeWidth=3;endArrow=none;startFill=0;" edge="1" parent="1" source="fg8lqmvWeH6vy0cf0ORE-119" target="fg8lqmvWeH6vy0cf0ORE-84">
          <mxGeometry relative="1" as="geometry">
            <Array as="points">
              <mxPoint x="-10" y="72" />
              <mxPoint x="-75" y="72" />
            </Array>
          </mxGeometry>
        </mxCell>
        <mxCell id="fg8lqmvWeH6vy0cf0ORE-123" style="edgeStyle=orthogonalEdgeStyle;rounded=0;orthogonalLoop=1;jettySize=auto;html=1;entryX=1.024;entryY=0.515;entryDx=0;entryDy=0;entryPerimeter=0;fillColor=#f8cecc;strokeColor=#b85450;strokeWidth=3;endArrow=none;startFill=0;" edge="1" parent="1" source="fg8lqmvWeH6vy0cf0ORE-119" target="fg8lqmvWeH6vy0cf0ORE-83">
          <mxGeometry relative="1" as="geometry">
            <Array as="points">
              <mxPoint x="-10" y="-30" />
              <mxPoint x="-75" y="-30" />
            </Array>
          </mxGeometry>
        </mxCell>
        <mxCell id="fg8lqmvWeH6vy0cf0ORE-124" value="" style="group" connectable="0" vertex="1" parent="1">
          <mxGeometry x="-310" y="330" width="200" height="200" as="geometry" />
        </mxCell>
        <mxCell id="fg8lqmvWeH6vy0cf0ORE-125" value="&lt;div&gt;&lt;span style=&quot;background-color: initial;&quot;&gt;Back&lt;/span&gt;&lt;/div&gt;&lt;div&gt;&lt;span style=&quot;background-color: initial;&quot;&gt;Dual Motor Driver&lt;/span&gt;&lt;/div&gt;&lt;div&gt;&lt;span style=&quot;background-color: initial;&quot;&gt;(&lt;/span&gt;&lt;span style=&quot;background-color: initial;&quot;&gt;Sabertooth&amp;nbsp;&lt;/span&gt;&lt;span style=&quot;background-color: initial;&quot;&gt;2X25 V2)&lt;/span&gt;&lt;/div&gt;" style="rounded=0;whiteSpace=wrap;html=1;fontStyle=1" vertex="1" parent="fg8lqmvWeH6vy0cf0ORE-124">
          <mxGeometry width="200" height="200" as="geometry" />
        </mxCell>
        <mxCell id="fg8lqmvWeH6vy0cf0ORE-126" value="&lt;font style=&quot;font-size: 10px;&quot;&gt;S1&lt;/font&gt;" style="text;html=1;align=center;verticalAlign=middle;resizable=0;points=[];autosize=1;strokeColor=none;fillColor=none;" vertex="1" parent="fg8lqmvWeH6vy0cf0ORE-124">
          <mxGeometry y="120" width="40" height="30" as="geometry" />
        </mxCell>
        <mxCell id="fg8lqmvWeH6vy0cf0ORE-127" value="&lt;font style=&quot;font-size: 10px;&quot;&gt;5V&lt;/font&gt;" style="text;html=1;align=center;verticalAlign=middle;resizable=0;points=[];autosize=1;strokeColor=none;fillColor=none;" vertex="1" parent="fg8lqmvWeH6vy0cf0ORE-124">
          <mxGeometry y="60" width="40" height="30" as="geometry" />
        </mxCell>
        <mxCell id="fg8lqmvWeH6vy0cf0ORE-128" value="&lt;font style=&quot;font-size: 10px;&quot;&gt;M1B&lt;/font&gt;" style="text;html=1;align=center;verticalAlign=middle;resizable=0;points=[];autosize=1;strokeColor=none;fillColor=none;" vertex="1" parent="fg8lqmvWeH6vy0cf0ORE-124">
          <mxGeometry x="80" width="40" height="30" as="geometry" />
        </mxCell>
        <mxCell id="fg8lqmvWeH6vy0cf0ORE-129" value="&lt;font style=&quot;font-size: 10px;&quot;&gt;M1A&lt;/font&gt;" style="text;html=1;align=center;verticalAlign=middle;resizable=0;points=[];autosize=1;strokeColor=none;fillColor=none;" vertex="1" parent="fg8lqmvWeH6vy0cf0ORE-124">
          <mxGeometry x="50" width="40" height="30" as="geometry" />
        </mxCell>
        <mxCell id="fg8lqmvWeH6vy0cf0ORE-130" value="&lt;font style=&quot;font-size: 10px;&quot;&gt;M2B&lt;/font&gt;" style="text;html=1;align=center;verticalAlign=middle;resizable=0;points=[];autosize=1;strokeColor=none;fillColor=none;" vertex="1" parent="fg8lqmvWeH6vy0cf0ORE-124">
          <mxGeometry x="160" width="40" height="30" as="geometry" />
        </mxCell>
        <mxCell id="fg8lqmvWeH6vy0cf0ORE-131" value="&lt;font style=&quot;font-size: 10px;&quot;&gt;M2A&lt;/font&gt;" style="text;html=1;align=center;verticalAlign=middle;resizable=0;points=[];autosize=1;strokeColor=none;fillColor=none;" vertex="1" parent="fg8lqmvWeH6vy0cf0ORE-124">
          <mxGeometry x="130" width="40" height="30" as="geometry" />
        </mxCell>
        <mxCell id="fg8lqmvWeH6vy0cf0ORE-132" value="&lt;font style=&quot;font-size: 10px;&quot;&gt;S2&lt;/font&gt;" style="text;html=1;align=center;verticalAlign=middle;resizable=0;points=[];autosize=1;strokeColor=none;fillColor=none;" vertex="1" parent="fg8lqmvWeH6vy0cf0ORE-124">
          <mxGeometry y="170" width="40" height="30" as="geometry" />
        </mxCell>
        <mxCell id="fg8lqmvWeH6vy0cf0ORE-133" value="&lt;font style=&quot;font-size: 10px;&quot;&gt;0V&lt;/font&gt;" style="text;html=1;align=center;verticalAlign=middle;resizable=0;points=[];autosize=1;strokeColor=none;fillColor=none;" vertex="1" parent="fg8lqmvWeH6vy0cf0ORE-124">
          <mxGeometry width="40" height="30" as="geometry" />
        </mxCell>
        <mxCell id="fg8lqmvWeH6vy0cf0ORE-134" value="&lt;font style=&quot;font-size: 10px;&quot;&gt;B+&lt;/font&gt;" style="text;html=1;align=center;verticalAlign=middle;resizable=0;points=[];autosize=1;strokeColor=none;fillColor=none;spacing=0;" vertex="1" parent="fg8lqmvWeH6vy0cf0ORE-124">
          <mxGeometry x="170" y="40" width="30" height="20" as="geometry" />
        </mxCell>
        <mxCell id="fg8lqmvWeH6vy0cf0ORE-135" value="&lt;font style=&quot;font-size: 10px;&quot;&gt;B-&lt;/font&gt;" style="text;html=1;align=center;verticalAlign=middle;resizable=0;points=[];autosize=1;strokeColor=none;fillColor=none;spacing=0;" vertex="1" parent="fg8lqmvWeH6vy0cf0ORE-124">
          <mxGeometry x="170" y="140" width="30" height="20" as="geometry" />
        </mxCell>
        <mxCell id="fg8lqmvWeH6vy0cf0ORE-136" value="&lt;font&gt;22V&lt;/font&gt;" style="text;html=1;align=center;verticalAlign=middle;resizable=0;points=[];autosize=1;strokeColor=none;fillColor=none;fontStyle=1;fontSize=18;" vertex="1" parent="1">
          <mxGeometry x="10" y="410" width="60" height="40" as="geometry" />
        </mxCell>
        <mxCell id="fg8lqmvWeH6vy0cf0ORE-137" value="" style="verticalLabelPosition=bottom;shadow=0;dashed=0;align=center;fillColor=strokeColor;html=1;verticalAlign=top;strokeWidth=3;shape=mxgraph.electrical.miscellaneous.monocell_battery;direction=north;" vertex="1" parent="1">
          <mxGeometry x="-40" y="382.5" width="60" height="95" as="geometry" />
        </mxCell>
        <mxCell id="fg8lqmvWeH6vy0cf0ORE-138" style="edgeStyle=orthogonalEdgeStyle;rounded=0;orthogonalLoop=1;jettySize=auto;html=1;entryX=1.012;entryY=0.583;entryDx=0;entryDy=0;entryPerimeter=0;strokeWidth=3;endArrow=none;startFill=0;" edge="1" parent="1" source="fg8lqmvWeH6vy0cf0ORE-137" target="fg8lqmvWeH6vy0cf0ORE-135">
          <mxGeometry relative="1" as="geometry">
            <Array as="points">
              <mxPoint x="-10" y="482" />
              <mxPoint x="-75" y="482" />
            </Array>
          </mxGeometry>
        </mxCell>
        <mxCell id="fg8lqmvWeH6vy0cf0ORE-139" style="edgeStyle=orthogonalEdgeStyle;rounded=0;orthogonalLoop=1;jettySize=auto;html=1;entryX=1.024;entryY=0.515;entryDx=0;entryDy=0;entryPerimeter=0;fillColor=#f8cecc;strokeColor=#b85450;strokeWidth=3;endArrow=none;startFill=0;" edge="1" parent="1" source="fg8lqmvWeH6vy0cf0ORE-137" target="fg8lqmvWeH6vy0cf0ORE-134">
          <mxGeometry relative="1" as="geometry">
            <Array as="points">
              <mxPoint x="-10" y="380" />
              <mxPoint x="-75" y="380" />
            </Array>
          </mxGeometry>
        </mxCell>
        <mxCell id="fg8lqmvWeH6vy0cf0ORE-141" value="&lt;span style=&quot;font-size: 10px;&quot;&gt;PB1 (U1TX)&lt;/span&gt;" style="text;html=1;align=center;verticalAlign=middle;resizable=0;points=[];autosize=1;strokeColor=none;fillColor=none;" vertex="1" parent="1">
          <mxGeometry x="-440" y="40" width="80" height="30" as="geometry" />
        </mxCell>
        <mxCell id="fg8lqmvWeH6vy0cf0ORE-142" value="&lt;span style=&quot;font-size: 10px;&quot;&gt;PD7 (U2TX)&lt;/span&gt;" style="text;html=1;align=center;verticalAlign=middle;resizable=0;points=[];autosize=1;strokeColor=none;fillColor=none;" vertex="1" parent="1">
          <mxGeometry x="-440" y="450" width="80" height="30" as="geometry" />
        </mxCell>
        <mxCell id="fg8lqmvWeH6vy0cf0ORE-145" style="edgeStyle=orthogonalEdgeStyle;rounded=0;orthogonalLoop=1;jettySize=auto;html=1;entryX=0;entryY=0.5;entryDx=0;entryDy=0;entryPerimeter=0;fillColor=#e51400;strokeColor=#B20000;" edge="1" parent="1" source="fg8lqmvWeH6vy0cf0ORE-142" target="fg8lqmvWeH6vy0cf0ORE-126">
          <mxGeometry relative="1" as="geometry" />
        </mxCell>
        <mxCell id="fg8lqmvWeH6vy0cf0ORE-146" style="edgeStyle=orthogonalEdgeStyle;rounded=0;orthogonalLoop=1;jettySize=auto;html=1;entryX=0;entryY=0.5;entryDx=0;entryDy=0;entryPerimeter=0;fillColor=#e51400;strokeColor=#B20000;" edge="1" parent="1" source="fg8lqmvWeH6vy0cf0ORE-141" target="fg8lqmvWeH6vy0cf0ORE-75">
          <mxGeometry relative="1" as="geometry" />
        </mxCell>
        <mxCell id="fg8lqmvWeH6vy0cf0ORE-147" value="&lt;font style=&quot;font-size: 10px;&quot;&gt;GND&lt;/font&gt;" style="text;html=1;align=center;verticalAlign=middle;resizable=0;points=[];autosize=1;strokeColor=none;fillColor=none;" vertex="1" parent="1">
          <mxGeometry x="-410" y="330" width="50" height="30" as="geometry" />
        </mxCell>
        <mxCell id="fg8lqmvWeH6vy0cf0ORE-148" value="&lt;font style=&quot;font-size: 10px;&quot;&gt;GND&lt;/font&gt;" style="text;html=1;align=center;verticalAlign=middle;resizable=0;points=[];autosize=1;strokeColor=none;fillColor=none;" vertex="1" parent="1">
          <mxGeometry x="-410" y="-80" width="50" height="30" as="geometry" />
        </mxCell>
        <mxCell id="fg8lqmvWeH6vy0cf0ORE-149" style="edgeStyle=orthogonalEdgeStyle;rounded=0;orthogonalLoop=1;jettySize=auto;html=1;entryX=0;entryY=0.5;entryDx=0;entryDy=0;entryPerimeter=0;endArrow=none;startFill=0;" edge="1" parent="1" source="fg8lqmvWeH6vy0cf0ORE-148" target="fg8lqmvWeH6vy0cf0ORE-82">
          <mxGeometry relative="1" as="geometry" />
        </mxCell>
        <mxCell id="fg8lqmvWeH6vy0cf0ORE-150" style="edgeStyle=orthogonalEdgeStyle;rounded=0;orthogonalLoop=1;jettySize=auto;html=1;entryX=0;entryY=0.5;entryDx=0;entryDy=0;entryPerimeter=0;endArrow=none;startFill=0;" edge="1" parent="1" source="fg8lqmvWeH6vy0cf0ORE-147" target="fg8lqmvWeH6vy0cf0ORE-133">
          <mxGeometry relative="1" as="geometry" />
        </mxCell>
        <mxCell id="fg8lqmvWeH6vy0cf0ORE-157" value="" style="group" vertex="1" connectable="0" parent="1">
          <mxGeometry x="-320" y="600" width="90" height="80" as="geometry" />
        </mxCell>
        <mxCell id="fg8lqmvWeH6vy0cf0ORE-7" value="&lt;div&gt;&lt;span style=&quot;background-color: transparent; color: light-dark(rgb(0, 0, 0), rgb(255, 255, 255));&quot;&gt;Sonar 0&lt;/span&gt;&lt;/div&gt;" style="rounded=0;whiteSpace=wrap;html=1;container=0;fontStyle=1" vertex="1" parent="fg8lqmvWeH6vy0cf0ORE-157">
          <mxGeometry x="10" width="69.6" height="80" as="geometry" />
        </mxCell>
        <mxCell id="fg8lqmvWeH6vy0cf0ORE-8" value="&lt;font style=&quot;font-size: 10px;&quot;&gt;+5V&lt;/font&gt;" style="text;html=1;align=center;verticalAlign=middle;resizable=0;points=[];autosize=1;strokeColor=none;fillColor=none;container=0;" vertex="1" parent="fg8lqmvWeH6vy0cf0ORE-157">
          <mxGeometry y="50" width="40" height="30" as="geometry" />
        </mxCell>
        <mxCell id="fg8lqmvWeH6vy0cf0ORE-9" value="&lt;font style=&quot;font-size: 10px;&quot;&gt;GND&lt;/font&gt;" style="text;html=1;align=center;verticalAlign=middle;resizable=0;points=[];autosize=1;strokeColor=none;fillColor=none;container=0;" vertex="1" parent="fg8lqmvWeH6vy0cf0ORE-157">
          <mxGeometry x="40" y="50" width="50" height="30" as="geometry" />
        </mxCell>
        <mxCell id="fg8lqmvWeH6vy0cf0ORE-151" value="&lt;span style=&quot;font-size: 10px;&quot;&gt;ECHO&lt;/span&gt;" style="text;html=1;align=center;verticalAlign=middle;resizable=0;points=[];autosize=1;strokeColor=none;fillColor=none;container=0;" vertex="1" parent="fg8lqmvWeH6vy0cf0ORE-157">
          <mxGeometry width="50" height="30" as="geometry" />
        </mxCell>
        <mxCell id="fg8lqmvWeH6vy0cf0ORE-156" value="&lt;span style=&quot;font-size: 10px;&quot;&gt;TRIG&lt;/span&gt;" style="text;html=1;align=center;verticalAlign=middle;resizable=0;points=[];autosize=1;strokeColor=none;fillColor=none;container=0;" vertex="1" parent="fg8lqmvWeH6vy0cf0ORE-157">
          <mxGeometry x="40" width="50" height="30" as="geometry" />
        </mxCell>
        <mxCell id="fg8lqmvWeH6vy0cf0ORE-158" value="" style="group" vertex="1" connectable="0" parent="1">
          <mxGeometry x="-200" y="600" width="90" height="80" as="geometry" />
        </mxCell>
        <mxCell id="fg8lqmvWeH6vy0cf0ORE-159" value="&lt;div&gt;&lt;span style=&quot;background-color: transparent; color: light-dark(rgb(0, 0, 0), rgb(255, 255, 255));&quot;&gt;Sonar 1&lt;/span&gt;&lt;/div&gt;" style="rounded=0;whiteSpace=wrap;html=1;container=0;fontStyle=1" vertex="1" parent="fg8lqmvWeH6vy0cf0ORE-158">
          <mxGeometry x="10" width="69.6" height="80" as="geometry" />
        </mxCell>
        <mxCell id="fg8lqmvWeH6vy0cf0ORE-160" value="&lt;font style=&quot;font-size: 10px;&quot;&gt;+5V&lt;/font&gt;" style="text;html=1;align=center;verticalAlign=middle;resizable=0;points=[];autosize=1;strokeColor=none;fillColor=none;container=0;" vertex="1" parent="fg8lqmvWeH6vy0cf0ORE-158">
          <mxGeometry y="50" width="40" height="30" as="geometry" />
        </mxCell>
        <mxCell id="fg8lqmvWeH6vy0cf0ORE-161" value="&lt;font style=&quot;font-size: 10px;&quot;&gt;GND&lt;/font&gt;" style="text;html=1;align=center;verticalAlign=middle;resizable=0;points=[];autosize=1;strokeColor=none;fillColor=none;container=0;" vertex="1" parent="fg8lqmvWeH6vy0cf0ORE-158">
          <mxGeometry x="40" y="50" width="50" height="30" as="geometry" />
        </mxCell>
        <mxCell id="fg8lqmvWeH6vy0cf0ORE-162" value="&lt;span style=&quot;font-size: 10px;&quot;&gt;ECHO&lt;/span&gt;" style="text;html=1;align=center;verticalAlign=middle;resizable=0;points=[];autosize=1;strokeColor=none;fillColor=none;container=0;" vertex="1" parent="fg8lqmvWeH6vy0cf0ORE-158">
          <mxGeometry width="50" height="30" as="geometry" />
        </mxCell>
        <mxCell id="fg8lqmvWeH6vy0cf0ORE-163" value="&lt;span style=&quot;font-size: 10px;&quot;&gt;TRIG&lt;/span&gt;" style="text;html=1;align=center;verticalAlign=middle;resizable=0;points=[];autosize=1;strokeColor=none;fillColor=none;container=0;" vertex="1" parent="fg8lqmvWeH6vy0cf0ORE-158">
          <mxGeometry x="40" width="50" height="30" as="geometry" />
        </mxCell>
        <mxCell id="fg8lqmvWeH6vy0cf0ORE-165" value="&lt;span style=&quot;font-size: 10px;&quot;&gt;PA2 (TRIG1)&lt;/span&gt;" style="text;html=1;align=center;verticalAlign=middle;resizable=0;points=[];autosize=1;strokeColor=none;fillColor=none;" vertex="1" parent="1">
          <mxGeometry x="-437" y="524" width="80" height="30" as="geometry" />
        </mxCell>
        <mxCell id="fg8lqmvWeH6vy0cf0ORE-168" value="&lt;span style=&quot;font-size: 10px;&quot;&gt;PC4 (ECHO1)&lt;/span&gt;" style="text;html=1;align=center;verticalAlign=middle;resizable=0;points=[];autosize=1;strokeColor=none;fillColor=none;" vertex="1" parent="1">
          <mxGeometry x="-445" y="541" width="90" height="30" as="geometry" />
        </mxCell>
        <mxCell id="fg8lqmvWeH6vy0cf0ORE-169" value="&lt;span style=&quot;font-size: 10px;&quot;&gt;PB3 (TRIG0)&lt;/span&gt;" style="text;html=1;align=center;verticalAlign=middle;resizable=0;points=[];autosize=1;strokeColor=none;fillColor=none;" vertex="1" parent="1">
          <mxGeometry x="-437" y="558" width="80" height="30" as="geometry" />
        </mxCell>
        <mxCell id="fg8lqmvWeH6vy0cf0ORE-170" value="&lt;span style=&quot;font-size: 10px;&quot;&gt;PD6 (ECHO0)&lt;/span&gt;" style="text;html=1;align=center;verticalAlign=middle;resizable=0;points=[];autosize=1;strokeColor=none;fillColor=none;" vertex="1" parent="1">
          <mxGeometry x="-445" y="576" width="90" height="30" as="geometry" />
        </mxCell>
        <mxCell id="fg8lqmvWeH6vy0cf0ORE-171" style="edgeStyle=orthogonalEdgeStyle;rounded=0;orthogonalLoop=1;jettySize=auto;html=1;entryX=0.536;entryY=-0.015;entryDx=0;entryDy=0;entryPerimeter=0;exitX=0.944;exitY=0.467;exitDx=0;exitDy=0;exitPerimeter=0;endArrow=none;startFill=1;fillColor=#d5e8d4;strokeColor=#82b366;startArrow=classic;" edge="1" parent="1" source="fg8lqmvWeH6vy0cf0ORE-170" target="fg8lqmvWeH6vy0cf0ORE-151">
          <mxGeometry relative="1" as="geometry">
            <Array as="points">
              <mxPoint x="-293" y="590" />
            </Array>
          </mxGeometry>
        </mxCell>
        <mxCell id="fg8lqmvWeH6vy0cf0ORE-172" style="edgeStyle=orthogonalEdgeStyle;rounded=0;orthogonalLoop=1;jettySize=auto;html=1;entryX=0.49;entryY=0.001;entryDx=0;entryDy=0;entryPerimeter=0;exitX=0.968;exitY=0.488;exitDx=0;exitDy=0;exitPerimeter=0;endArrow=classic;startFill=0;fillColor=#fff2cc;strokeColor=#d6b656;endFill=1;" edge="1" parent="1" source="fg8lqmvWeH6vy0cf0ORE-169" target="fg8lqmvWeH6vy0cf0ORE-156">
          <mxGeometry relative="1" as="geometry" />
        </mxCell>
        <mxCell id="fg8lqmvWeH6vy0cf0ORE-173" style="edgeStyle=orthogonalEdgeStyle;rounded=0;orthogonalLoop=1;jettySize=auto;html=1;entryX=0.524;entryY=0.004;entryDx=0;entryDy=0;entryPerimeter=0;exitX=0.944;exitY=0.5;exitDx=0;exitDy=0;exitPerimeter=0;endArrow=none;startFill=1;fillColor=#d5e8d4;strokeColor=#82b366;startArrow=classic;" edge="1" parent="1" source="fg8lqmvWeH6vy0cf0ORE-168" target="fg8lqmvWeH6vy0cf0ORE-162">
          <mxGeometry relative="1" as="geometry" />
        </mxCell>
        <mxCell id="fg8lqmvWeH6vy0cf0ORE-174" style="edgeStyle=orthogonalEdgeStyle;rounded=0;orthogonalLoop=1;jettySize=auto;html=1;entryX=0.508;entryY=-0.01;entryDx=0;entryDy=0;entryPerimeter=0;exitX=0.962;exitY=0.533;exitDx=0;exitDy=0;exitPerimeter=0;endArrow=classic;startFill=0;fillColor=#fff2cc;strokeColor=#d6b656;endFill=1;" edge="1" parent="1" source="fg8lqmvWeH6vy0cf0ORE-165" target="fg8lqmvWeH6vy0cf0ORE-163">
          <mxGeometry relative="1" as="geometry" />
        </mxCell>
        <mxCell id="fg8lqmvWeH6vy0cf0ORE-176" value="" style="group" vertex="1" connectable="0" parent="1">
          <mxGeometry x="-100" y="140" width="160" height="40" as="geometry" />
        </mxCell>
        <mxCell id="fg8lqmvWeH6vy0cf0ORE-177" value="Motor&lt;div&gt;(Front Left)&lt;/div&gt;" style="rounded=0;whiteSpace=wrap;html=1;" vertex="1" parent="fg8lqmvWeH6vy0cf0ORE-176">
          <mxGeometry x="0.01" width="159.99" height="40" as="geometry" />
        </mxCell>
        <mxCell id="fg8lqmvWeH6vy0cf0ORE-180" value="MA" style="text;html=1;align=center;verticalAlign=middle;resizable=0;points=[];autosize=1;strokeColor=none;fillColor=none;" vertex="1" parent="fg8lqmvWeH6vy0cf0ORE-176">
          <mxGeometry x="-6.6825049013955455" y="-4.545454545454545" width="40" height="30" as="geometry" />
        </mxCell>
        <mxCell id="fg8lqmvWeH6vy0cf0ORE-181" value="MB" style="text;html=1;align=center;verticalAlign=middle;resizable=0;points=[];autosize=1;strokeColor=none;fillColor=none;" vertex="1" parent="fg8lqmvWeH6vy0cf0ORE-176">
          <mxGeometry x="-6.6825049013955455" y="12.727272727272727" width="40" height="30" as="geometry" />
        </mxCell>
        <mxCell id="fg8lqmvWeH6vy0cf0ORE-186" value="" style="group" vertex="1" connectable="0" parent="1">
          <mxGeometry x="-100" y="180" width="160" height="40" as="geometry" />
        </mxCell>
        <mxCell id="fg8lqmvWeH6vy0cf0ORE-187" value="Motor&lt;div&gt;(Front Right)&lt;/div&gt;" style="rounded=0;whiteSpace=wrap;html=1;" vertex="1" parent="fg8lqmvWeH6vy0cf0ORE-186">
          <mxGeometry x="0.01" width="159.99" height="40" as="geometry" />
        </mxCell>
        <mxCell id="fg8lqmvWeH6vy0cf0ORE-188" value="MA" style="text;html=1;align=center;verticalAlign=middle;resizable=0;points=[];autosize=1;strokeColor=none;fillColor=none;" vertex="1" parent="fg8lqmvWeH6vy0cf0ORE-186">
          <mxGeometry x="-6.6825049013955455" y="-4.545454545454545" width="40" height="30" as="geometry" />
        </mxCell>
        <mxCell id="fg8lqmvWeH6vy0cf0ORE-189" value="MB" style="text;html=1;align=center;verticalAlign=middle;resizable=0;points=[];autosize=1;strokeColor=none;fillColor=none;" vertex="1" parent="fg8lqmvWeH6vy0cf0ORE-186">
          <mxGeometry x="-6.6825049013955455" y="12.727272727272727" width="40" height="30" as="geometry" />
        </mxCell>
        <mxCell id="fg8lqmvWeH6vy0cf0ORE-190" value="" style="group" vertex="1" connectable="0" parent="1">
          <mxGeometry x="-100" y="220" width="160" height="40" as="geometry" />
        </mxCell>
        <mxCell id="fg8lqmvWeH6vy0cf0ORE-191" value="Motor&lt;div&gt;(Back Left)&lt;/div&gt;" style="rounded=0;whiteSpace=wrap;html=1;" vertex="1" parent="fg8lqmvWeH6vy0cf0ORE-190">
          <mxGeometry x="0.01" width="159.99" height="40" as="geometry" />
        </mxCell>
        <mxCell id="fg8lqmvWeH6vy0cf0ORE-192" value="MA" style="text;html=1;align=center;verticalAlign=middle;resizable=0;points=[];autosize=1;strokeColor=none;fillColor=none;" vertex="1" parent="fg8lqmvWeH6vy0cf0ORE-190">
          <mxGeometry x="-6.6825049013955455" y="-4.545454545454545" width="40" height="30" as="geometry" />
        </mxCell>
        <mxCell id="fg8lqmvWeH6vy0cf0ORE-193" value="MB" style="text;html=1;align=center;verticalAlign=middle;resizable=0;points=[];autosize=1;strokeColor=none;fillColor=none;" vertex="1" parent="fg8lqmvWeH6vy0cf0ORE-190">
          <mxGeometry x="-6.6825049013955455" y="12.727272727272727" width="40" height="30" as="geometry" />
        </mxCell>
        <mxCell id="fg8lqmvWeH6vy0cf0ORE-194" value="" style="group" vertex="1" connectable="0" parent="1">
          <mxGeometry x="-100" y="260" width="160" height="40" as="geometry" />
        </mxCell>
        <mxCell id="fg8lqmvWeH6vy0cf0ORE-195" value="Motor&lt;div&gt;(Back Right)&lt;/div&gt;" style="rounded=0;whiteSpace=wrap;html=1;" vertex="1" parent="fg8lqmvWeH6vy0cf0ORE-194">
          <mxGeometry x="0.01" width="159.99" height="40" as="geometry" />
        </mxCell>
        <mxCell id="fg8lqmvWeH6vy0cf0ORE-196" value="MA" style="text;html=1;align=center;verticalAlign=middle;resizable=0;points=[];autosize=1;strokeColor=none;fillColor=none;" vertex="1" parent="fg8lqmvWeH6vy0cf0ORE-194">
          <mxGeometry x="-6.6825049013955455" y="-4.545454545454545" width="40" height="30" as="geometry" />
        </mxCell>
        <mxCell id="fg8lqmvWeH6vy0cf0ORE-197" value="MB" style="text;html=1;align=center;verticalAlign=middle;resizable=0;points=[];autosize=1;strokeColor=none;fillColor=none;" vertex="1" parent="fg8lqmvWeH6vy0cf0ORE-194">
          <mxGeometry x="-6.6825049013955455" y="12.727272727272727" width="40" height="30" as="geometry" />
        </mxCell>
        <mxCell id="fg8lqmvWeH6vy0cf0ORE-198" style="edgeStyle=orthogonalEdgeStyle;rounded=0;orthogonalLoop=1;jettySize=auto;html=1;entryX=0.167;entryY=0.576;entryDx=0;entryDy=0;entryPerimeter=0;fillColor=#fff2cc;strokeColor=#d6b656;endArrow=none;startFill=0;" edge="1" parent="1" source="fg8lqmvWeH6vy0cf0ORE-130" target="fg8lqmvWeH6vy0cf0ORE-197">
          <mxGeometry relative="1" as="geometry">
            <Array as="points">
              <mxPoint x="-130" y="290" />
            </Array>
          </mxGeometry>
        </mxCell>
        <mxCell id="fg8lqmvWeH6vy0cf0ORE-199" style="edgeStyle=orthogonalEdgeStyle;rounded=0;orthogonalLoop=1;jettySize=auto;html=1;entryX=0.167;entryY=0.485;entryDx=0;entryDy=0;entryPerimeter=0;fillColor=#d5e8d4;strokeColor=#82b366;endArrow=none;startFill=0;" edge="1" parent="1" source="fg8lqmvWeH6vy0cf0ORE-131" target="fg8lqmvWeH6vy0cf0ORE-196">
          <mxGeometry relative="1" as="geometry">
            <mxPoint x="-110" y="270" as="targetPoint" />
            <Array as="points">
              <mxPoint x="-160" y="270" />
            </Array>
          </mxGeometry>
        </mxCell>
        <mxCell id="fg8lqmvWeH6vy0cf0ORE-200" style="edgeStyle=orthogonalEdgeStyle;rounded=0;orthogonalLoop=1;jettySize=auto;html=1;entryX=0.167;entryY=0.576;entryDx=0;entryDy=0;entryPerimeter=0;fillColor=#fff2cc;strokeColor=#d6b656;endArrow=none;startFill=0;" edge="1" parent="1" source="fg8lqmvWeH6vy0cf0ORE-128" target="fg8lqmvWeH6vy0cf0ORE-193">
          <mxGeometry relative="1" as="geometry">
            <Array as="points">
              <mxPoint x="-210" y="250" />
            </Array>
          </mxGeometry>
        </mxCell>
        <mxCell id="fg8lqmvWeH6vy0cf0ORE-201" style="edgeStyle=orthogonalEdgeStyle;rounded=0;orthogonalLoop=1;jettySize=auto;html=1;entryX=0.167;entryY=-0.063;entryDx=0;entryDy=0;entryPerimeter=0;fillColor=#d5e8d4;strokeColor=#82b366;endArrow=none;startFill=0;" edge="1" parent="1" source="fg8lqmvWeH6vy0cf0ORE-129" target="fg8lqmvWeH6vy0cf0ORE-193">
          <mxGeometry relative="1" as="geometry">
            <mxPoint x="-110" y="230" as="targetPoint" />
            <Array as="points">
              <mxPoint x="-240" y="231" />
            </Array>
          </mxGeometry>
        </mxCell>
        <mxCell id="fg8lqmvWeH6vy0cf0ORE-202" style="edgeStyle=orthogonalEdgeStyle;rounded=0;orthogonalLoop=1;jettySize=auto;html=1;entryX=0.157;entryY=-0.051;entryDx=0;entryDy=0;entryPerimeter=0;fillColor=#d5e8d4;strokeColor=#82b366;endArrow=none;startFill=0;" edge="1" parent="1" source="fg8lqmvWeH6vy0cf0ORE-79" target="fg8lqmvWeH6vy0cf0ORE-181">
          <mxGeometry relative="1" as="geometry">
            <Array as="points">
              <mxPoint x="-130" y="151" />
              <mxPoint x="-100" y="151" />
            </Array>
          </mxGeometry>
        </mxCell>
        <mxCell id="fg8lqmvWeH6vy0cf0ORE-203" style="edgeStyle=orthogonalEdgeStyle;rounded=0;orthogonalLoop=1;jettySize=auto;html=1;entryX=0.167;entryY=0.576;entryDx=0;entryDy=0;entryPerimeter=0;fillColor=#fff2cc;strokeColor=#d6b656;endArrow=none;startFill=0;" edge="1" parent="1" source="fg8lqmvWeH6vy0cf0ORE-80" target="fg8lqmvWeH6vy0cf0ORE-181">
          <mxGeometry relative="1" as="geometry">
            <mxPoint x="-110" y="170" as="targetPoint" />
            <Array as="points">
              <mxPoint x="-160" y="170" />
            </Array>
          </mxGeometry>
        </mxCell>
        <mxCell id="fg8lqmvWeH6vy0cf0ORE-204" style="edgeStyle=orthogonalEdgeStyle;rounded=0;orthogonalLoop=1;jettySize=auto;html=1;entryX=0.166;entryY=-0.064;entryDx=0;entryDy=0;entryPerimeter=0;fillColor=#d5e8d4;strokeColor=#82b366;endArrow=none;startFill=0;" edge="1" parent="1" source="fg8lqmvWeH6vy0cf0ORE-77" target="fg8lqmvWeH6vy0cf0ORE-189">
          <mxGeometry relative="1" as="geometry">
            <Array as="points">
              <mxPoint x="-210" y="191" />
            </Array>
          </mxGeometry>
        </mxCell>
        <mxCell id="fg8lqmvWeH6vy0cf0ORE-205" style="edgeStyle=orthogonalEdgeStyle;rounded=0;orthogonalLoop=1;jettySize=auto;html=1;entryX=0.167;entryY=0.576;entryDx=0;entryDy=0;entryPerimeter=0;fillColor=#fff2cc;strokeColor=#d6b656;endArrow=none;startFill=0;" edge="1" parent="1" source="fg8lqmvWeH6vy0cf0ORE-78" target="fg8lqmvWeH6vy0cf0ORE-189">
          <mxGeometry relative="1" as="geometry">
            <mxPoint x="-110" y="210" as="targetPoint" />
            <Array as="points">
              <mxPoint x="-240" y="210" />
            </Array>
          </mxGeometry>
        </mxCell>
      </root>
    </mxGraphModel>
  </diagram>
</mxfile>
